HIERARCHY
ROOT Hips
{
	OFFSET 0.000000 0.000000 0.000000
	CHANNELS 6 Xposition Yposition Zposition Zrotation Yrotation Xrotation 
	JOINT LowerBack
	{
		OFFSET 0.000000 0.000000 0.000000
		CHANNELS 3 Zrotation Yrotation Xrotation
		JOINT Spine
		{
			OFFSET 0.028270 2.035590 -0.193380
			CHANNELS 3 Zrotation Yrotation Xrotation
			JOINT Spine1
			{
				OFFSET 0.056720 2.048850 -0.042750
				CHANNELS 3 Zrotation Yrotation Xrotation
				JOINT Neck
				{
					OFFSET 0.000000 0.000000 0.000000
					CHANNELS 3 Zrotation Yrotation Xrotation
					JOINT Neck1
					{
						OFFSET -0.054170 1.746240 0.172020
						CHANNELS 3 Zrotation Yrotation Xrotation
						JOINT Head
						{
							OFFSET 0.104070 1.761360 -0.123970
							CHANNELS 3 Zrotation Yrotation Xrotation
							End Site
							{
								OFFSET 0.000000 0.000000 0.000000
							}
						}
					}
				}
				JOINT LeftShoulder
				{
					OFFSET 0.000000 0.000000 0.000000
					CHANNELS 3 Zrotation Yrotation Xrotation
					JOINT LeftArm
					{
						OFFSET 3.362410 1.200890 -0.311210
						CHANNELS 3 Zrotation Yrotation Xrotation
						JOINT LeftForeArm
						{
							OFFSET 4.983000 -0.000000 -0.000000
							CHANNELS 3 Zrotation Yrotation Xrotation
							JOINT LeftHand
							{
								OFFSET 3.483560 -0.000000 -0.000000
								CHANNELS 3 Zrotation Yrotation Xrotation
								JOINT LeftFingerBase
								{
									OFFSET 0.000000 0.000000 0.000000
									CHANNELS 3 Zrotation Yrotation Xrotation
									JOINT LeftHandIndex1
									{
										OFFSET 0.715260 -0.000000 -0.000000
										CHANNELS 3 Zrotation Yrotation Xrotation
										End Site
										{
											OFFSET 0.000000 0.000000 0.000000
										}
									}
								}
								JOINT LThumb
								{
									OFFSET 0.000000 0.000000 0.000000
									CHANNELS 3 Zrotation Yrotation Xrotation
									End Site
									{
										OFFSET 0.000000 0.000000 0.000000
									}
								}
							}
						}
					}
				}
				JOINT RightShoulder
				{
					OFFSET 0.000000 0.000000 0.000000
					CHANNELS 3 Zrotation Yrotation Xrotation
					JOINT RightArm
					{
						OFFSET -3.136600 1.374050 -0.404650
						CHANNELS 3 Zrotation Yrotation Xrotation
						JOINT RightForeArm
						{
							OFFSET -5.241900 -0.000000 -0.000000
							CHANNELS 3 Zrotation Yrotation Xrotation
							JOINT RightHand
							{
								OFFSET -3.444170 -0.000000 -0.000000
								CHANNELS 3 Zrotation Yrotation Xrotation
								JOINT RightFingerBase
								{
									OFFSET 0.000000 0.000000 0.000000
									CHANNELS 3 Zrotation Yrotation Xrotation
									JOINT RightHandIndex1
									{
										OFFSET -0.622530 -0.000000 -0.000000
										CHANNELS 3 Zrotation Yrotation Xrotation
										End Site
										{
											OFFSET 0.000000 0.000000 0.000000
										}
									}
								}
								JOINT RThumb
								{
									OFFSET 0.000000 0.000000 0.000000
									CHANNELS 3 Zrotation Yrotation Xrotation
									End Site
									{
										OFFSET 0.000000 0.000000 0.000000
									}
								}
							}
						}
					}
				}
			}
		}
	}
}
}
MOTION
Frames: 11
Frame Time: 0.008333
-2.904377 15.585167 -0.247881 -100.766789 83.837960 -75.509369 -1.448687 0.275788 9.409726 -0.919474 0.585030 -1.174428 -4.920097 0.588557 -0.368120 7.381560 -7.789815 -9.668225 -1.188090 -0.029325 -0.973979 0.000000 0.000000 0.000000 0.576310 15.709845 3.970115 -72.646432 20.974238 14.004310 -1.759123 -56.627389 -0.001512 -2.084648 5.296503 -0.093955 -0.035416 0.029562 0.000000 0.000000 0.000000 0.000000 0.000000 0.000000 0.000000 1.958906 -0.806183 0.073742 60.159499 13.548067 10.288617 179.904412 89.550025 179.997548 -0.492141 0.113755 -0.001731 0.006950 -0.372846 -0.000000 0.000000 0.000000 0.000000 0.000000 0.000000 0.000000 
-2.752151 15.568055 -0.270823 -100.193688 83.701569 -75.132186 -1.703082 0.283607 9.432663 -0.990222 0.595902 -1.177549 -4.989510 0.600777 -0.396032 7.462500 -7.754668 -9.668876 -1.208876 -0.030815 -0.974374 0.000000 0.000000 0.000000 0.526818 15.665696 3.963519 -72.480582 20.638570 13.920391 -1.773289 -56.536406 -0.001616 -2.043242 5.334996 -0.092652 -0.036315 0.030056 0.000000 0.000000 0.000000 0.000000 0.000000 0.000000 0.000000 2.119910 -0.752122 0.091797 60.569141 13.245308 10.517745 179.917641 89.951172 179.998401 -0.363604 0.176636 -0.001427 0.004489 -0.371665 -0.000000 0.000000 0.000000 0.000000 0.000000 0.000000 0.000000 
-2.600734 15.553386 -0.295383 -99.919307 83.579909 -75.040442 -1.939237 0.288416 9.450990 -1.056330 0.602531 -1.180800 -5.055364 0.608529 -0.421611 7.518721 -7.723013 -9.666828 -1.233666 -0.032671 -0.974019 0.000000 0.000000 0.000000 0.467048 15.605732 3.951923 -72.311330 20.257849 13.818715 -1.785215 -56.463725 -0.001751 -1.968759 5.370044 -0.089745 -0.037539 0.030903 0.000000 0.000000 0.000000 0.000000 0.000000 0.000000 0.000000 2.282974 -0.709570 0.112087 60.983796 12.935331 10.744335 -0.065656 89.560905 -0.000897 -0.257888 0.240758 -0.001021 0.002608 -0.370042 -0.000000 0.000000 0.000000 0.000000 0.000000 0.000000 0.000000 
-2.450399 15.540912 -0.321993 -99.893192 83.464798 -75.186302 -2.146387 0.290637 9.465937 -1.115083 0.605396 -1.183558 -5.116068 0.612279 -0.443719 7.545682 -7.694610 -9.663284 -1.261840 -0.034830 -0.973225 0.000000 0.000000 0.000000 0.398468 15.535404 3.935546 -72.149602 19.834765 13.694966 -1.794682 -56.407721 -0.001912 -1.861976 5.396098 -0.085037 -0.039064 0.032157 0.000000 0.000000 0.000000 0.000000 0.000000 0.000000 0.000000 2.441026 -0.678188 0.134275 61.397925 12.625978 10.970667 -0.046150 88.981742 -0.001174 -0.174300 0.306660 -0.000616 0.001300 -0.367940 -0.000000 0.000000 0.000000 0.000000 0.000000 0.000000 0.000000 
-2.301421 15.530314 -0.350907 -100.051804 83.348737 -75.508907 -2.317516 0.291073 9.478813 -1.164684 0.605424 -1.185334 -5.170476 0.612952 -0.461763 7.541182 -7.668169 -9.659387 -1.292781 -0.037225 -0.972323 0.000000 0.000000 0.000000 0.324644 15.459486 3.914886 -72.005069 19.372179 13.546528 -1.801533 -56.367974 -0.002089 -1.725452 5.407415 -0.078727 -0.040848 0.033872 0.000000 0.000000 0.000000 0.000000 0.000000 0.000000 0.000000 2.588704 -0.655888 0.158352 61.806997 12.323652 11.198219 -0.021298 88.309235 0.000084 -0.110379 0.375352 -0.000308 0.000524 -0.365347 -0.000000 0.000000 0.000000 0.000000 0.000000 0.000000 0.000000 
-2.154121 15.521349 -0.382200 -100.328115 83.226402 -75.943154 -2.449510 0.290775 9.490463 -1.204252 0.603818 -1.185899 -5.217741 0.611753 -0.475727 7.505180 -7.641554 -9.656074 -1.325785 -0.039785 -0.971608 0.000000 0.000000 0.000000 0.249918 15.381633 3.890588 -71.884439 18.874891 13.372915 -1.805649 -56.346128 -0.002280 -1.562940 5.399032 -0.070813 -0.042845 0.036086 0.000000 0.000000 0.000000 0.000000 0.000000 0.000000 0.000000 2.721904 -0.639181 0.184657 62.207784 12.032444 11.426824 0.006367 87.543249 0.000408 -0.062287 0.447725 -0.000001 0.000218 -0.362276 -0.000000 0.000000 0.000000 0.000000 0.000000 0.000000 0.000000 
-2.008751 15.513730 -0.415719 -100.663137 83.094853 -76.430434 -2.543388 0.290525 9.501294 -1.233926 0.601544 -1.185159 -5.257577 0.609669 -0.485757 7.440135 -7.612475 -9.654133 -1.360231 -0.042443 -0.971363 0.000000 0.000000 0.000000 0.180195 15.304974 3.863361 -71.792037 18.345802 13.177575 -1.807021 -56.344581 -0.002475 -1.379689 5.366884 -0.061698 -0.045000 0.038833 0.000000 0.000000 0.000000 0.000000 0.000000 0.000000 0.000000 2.839169 -0.624384 0.213663 62.598411 11.754203 11.654607 0.037585 86.685673 0.000659 -0.025406 0.524254 0.000208 0.000300 -0.358747 -0.000000 0.000000 0.000000 0.000000 0.000000 0.000000 0.000000 
-1.865596 15.507344 -0.451169 -101.015912 82.953181 -76.929774 -2.602641 0.291059 9.511205 -1.254529 0.599510 -1.183536 -5.290333 0.607606 -0.493486 7.350146 -7.578184 -9.653074 -1.395642 -0.045166 -0.971488 0.000000 0.000000 0.000000 0.119784 15.225611 3.833754 -71.727982 17.795032 12.961543 -1.805408 -56.371584 -0.002669 -1.182219 5.309769 -0.051781 -0.047237 0.042113 0.000000 0.000000 0.000000 0.000000 0.000000 0.000000 0.000000 2.940715 -0.607175 0.246518 62.978303 11.487497 11.878472 0.072246 85.740232 0.000867 0.004600 0.605791 0.000415 0.000709 -0.354809 -0.000000 0.000000 0.000000 0.000000 0.000000 0.000000 0.000000 
-1.724833 15.502090 -0.488091 -101.366853 82.803615 -77.420154 -2.634395 0.292417 9.520056 -1.267707 0.597940 -1.181236 -5.316611 0.605825 -0.499727 7.241308 -7.536391 -9.652841 -1.431581 -0.047914 -0.972039 0.000000 0.000000 0.000000 0.074848 15.143047 3.802407 -71.688952 17.226191 12.733974 -1.800880 -56.432767 -0.002858 -0.976983 5.228078 -0.041562 -0.049507 0.045916 0.000000 0.000000 0.000000 0.000000 0.000000 0.000000 0.000000 3.029247 -0.584145 0.283954 63.347711 11.230364 12.094246 0.110246 84.711967 0.001056 0.031275 0.691703 0.000723 0.001387 -0.350498 -0.000000 0.000000 0.000000 0.000000 0.000000 0.000000 0.000000 
-1.586641 15.497962 -0.525960 -101.719269 82.648204 -77.903386 -2.644917 0.294331 9.527495 -1.274980 0.596708 -1.178502 -5.337360 0.604231 -0.505120 7.120108 -7.485305 -9.653098 -1.467738 -0.050663 -0.972958 0.000000 0.000000 0.000000 0.050827 15.056569 3.769776 -71.668686 16.641121 12.507413 -1.793627 -56.532896 -0.003038 -0.770249 5.123985 -0.031341 -0.051778 0.050215 0.000000 0.000000 0.000000 0.000000 0.000000 0.000000 0.000000 3.108357 -0.552730 0.326478 63.707106 10.978838 12.296149 0.151465 83.607709 0.001249 0.058647 0.780959 0.001032 0.002263 -0.345842 0.000000 0.000000 0.000000 0.000000 0.000000 0.000000 0.000000 
-1.451071 15.495062 -0.564106 -102.104114 82.496340 -78.409954 -2.647291 0.295416 9.534789 -1.279483 0.594625 -1.176004 -5.354119 0.601667 -0.513413 6.993773 -7.424231 -9.650475 -1.504016 -0.053456 -0.973297 0.000000 0.000000 0.000000 0.047748 14.947890 3.735732 -71.657219 16.061405 12.279438 -1.782899 -56.693142 -0.003204 -0.570794 5.006387 -0.021920 -0.053926 0.054910 0.000000 0.000000 0.000000 0.000000 0.000000 0.000000 0.000000 3.183586 -0.512270 0.376044 64.059415 10.728274 12.482170 0.195961 82.432007 0.001438 0.084778 0.873981 0.001341 0.003397 -0.340920 0.000000 0.000000 0.000000 0.000000 0.000000 0.000000 0.000000 
